# xmcd CD database file
#
# Track frame offsets:
#	150
#	35924
#	64581
#	91283
#	119134
#	143524
#	171359
#	207677
#
# Disc length: 3072 seconds
#
# Revision: 0
# Processed by: cddbd v1.5.2PL0 Copyright (c) Steve Scherf et al.
# Submitted via: CDex 1.51
#
DISCID=7b0bfe08
DTITLE=Ninie Doniah - Nivaly Koresy
DYEAR=2000
DGENRE=Salsa
TTITLE0=Magavakoka
TTITLE1=Limogno
TTITLE2=Raharaha Sarotra
TTITLE3=Ledama
TTITLE4=Magnaraha lalagna
TTITLE5=Mandiniha raha
TTITLE6=Ngoma Lehaly
TTITLE7=Generique
EXTD=YEAR: 2000
EXTT0=
EXTT1=
EXTT2=
EXTT3=
EXTT4=
EXTT5=
EXTT6=
EXTT7=
PLAYORDER=
